<?xml version="1.0" encoding="UTF-8"?>
<svg width="560px" height="149px" viewBox="0 0 560 149" version="1.1" xmlns="http://www.w3.org/2000/svg" xmlns:xlink="http://www.w3.org/1999/xlink">
    <!-- Generator: Sketch 48.2 (47327) - http://www.bohemiancoding.com/sketch -->
    <title>a_gluon_purple@1x</title>
    <desc>Created with Sketch.</desc>
    <defs>
        <linearGradient x1="50%" y1="-2.48949813e-15%" x2="50%" y2="100%" id="linearGradient-1">
            <stop stop-color="#9768D2" offset="0%"></stop>
            <stop stop-color="#7A52AB" offset="100%"></stop>
        </linearGradient>
    </defs>
    <g id="Artboard-6" stroke="none" stroke-width="1" fill="none" fill-rule="evenodd" transform="translate(-120.000000, -137.000000)">
        <path d="M199.058729,152.389165 L231.148349,170.91568 C233.414763,167.913008 237.013404,165.972222 241.06535,165.972222 C247.923047,165.972222 253.482309,171.531353 253.482309,178.388889 C253.482309,184.202236 249.487156,189.082487 244.092631,190.433919 L244.092631,232.566081 C249.487156,233.917513 253.482309,238.797764 253.482309,244.611111 C253.482309,251.468647 247.923047,257.027778 241.06535,257.027778 C237.013404,257.027778 233.414763,255.086992 231.148349,252.08432 L199.058729,270.610835 C199.292707,271.563211 199.4168,272.558781 199.4168,273.583333 C199.4168,280.440869 193.857538,286 186.999841,286 C180.142144,286 174.582882,280.440869 174.582882,273.583333 C174.582882,272.652753 174.685256,271.746083 174.879356,270.873971 L142.33396,252.08432 C140.067546,255.086992 136.468905,257.027778 132.416959,257.027778 C125.559262,257.027778 120,251.468647 120,244.611111 C120,238.797764 123.995154,233.917513 129.389678,232.566081 L129.389678,190.433919 C123.995154,189.082487 120,184.202236 120,178.388889 C120,171.531353 125.559262,165.972222 132.416959,165.972222 C136.468905,165.972222 140.067546,167.913008 142.33396,170.91568 L174.879356,152.126029 C174.685256,151.253917 174.582882,150.347247 174.582882,149.416667 C174.582882,142.559131 180.142144,137 186.999841,137 C193.857538,137 199.4168,142.559131 199.4168,149.416667 C199.4168,150.441219 199.292707,151.436789 199.058729,152.389165 Z M328.256265,247.762901 C322.743434,247.762901 317.734901,246.84202 313.230515,245.000229 C308.726128,243.158439 304.877289,240.613458 301.683881,237.365209 C298.490473,234.116961 296.019821,230.299489 294.27185,225.912679 C292.523879,221.525869 291.649907,216.754029 291.649907,211.597016 C291.649907,206.506979 292.540686,201.852342 294.322272,197.432045 C296.103857,193.011748 298.608124,189.144046 301.835147,185.828824 C305.06217,182.513601 308.911009,179.884903 313.38178,177.942652 C317.852552,176.0004 322.743435,175.029289 328.054577,175.029289 C331.14714,175.029289 333.953936,175.246952 336.475047,175.682284 C338.996159,176.117616 341.332354,176.737118 343.483703,177.540808 C345.635051,178.344499 347.668718,179.332353 349.584762,180.504402 C351.500807,181.67645 353.366402,183.032657 355.181602,184.573064 L347.315773,193.915917 C345.97118,192.777356 344.592993,191.739272 343.181171,190.801633 C341.769348,189.863994 340.290318,189.077059 338.744037,188.440804 C337.197755,187.804549 335.500232,187.30225 333.651417,186.933892 C331.802601,186.565534 329.768935,186.381358 327.550357,186.381358 C324.323334,186.381358 321.314853,187.05109 318.524822,188.390574 C315.734792,189.730058 313.314561,191.521591 311.264057,193.765226 C309.213553,196.008862 307.600066,198.637559 306.423547,201.651398 C305.247028,204.665237 304.658778,207.846464 304.658778,211.195173 C304.658778,215.012701 305.230221,218.361361 306.373125,221.442174 C307.516029,224.522987 309.146324,227.168428 311.264057,229.378576 C313.381791,231.588725 315.902865,233.330028 318.827354,234.602537 C321.751844,235.875047 325.02924,236.511292 328.659641,236.511292 C332.021123,236.511292 335.164061,236.025737 338.088551,235.054611 C341.01304,234.083485 343.550921,232.794251 345.70227,231.186871 L345.70227,218.026507 L327.651201,218.026507 L327.651201,207.277202 L357.702701,207.277202 L357.702701,236.812675 C355.95473,238.286107 354.021907,239.692544 351.904173,241.032028 C349.78644,242.371512 347.500666,243.543543 345.046784,244.548156 C342.592902,245.552769 339.954178,246.339704 337.130533,246.908984 C334.306888,247.478265 331.348828,247.762901 328.256265,247.762901 Z M378.879933,176.234818 L391.28374,176.234818 L391.28374,235.305763 L428.394318,235.305763 L428.394318,246.557371 L378.879933,246.557371 L378.879933,176.234818 Z M475.28676,247.66244 C470.715144,247.66244 466.580583,247.009452 462.882952,245.703455 C459.185322,244.397458 456.025576,242.438492 453.40362,239.826499 C450.781664,237.214505 448.764805,233.983048 447.352982,230.132032 C445.94116,226.281016 445.235259,221.810556 445.235259,216.720517 L445.235259,176.234818 L457.639066,176.234818 L457.639066,216.218213 C457.639066,222.781684 459.218939,227.771187 462.378733,231.186871 C465.538526,234.602555 469.908387,236.310371 475.488447,236.310371 C481.001278,236.310371 485.337525,234.669528 488.497318,231.387792 C491.657112,228.106057 493.236985,223.217014 493.236985,216.720517 L493.236985,176.234818 L505.640792,176.234818 L505.640792,216.117752 C505.640792,221.341739 504.918084,225.929403 503.472647,229.88088 C502.027209,233.832358 499.993543,237.130787 497.371587,239.776268 C494.749631,242.421749 491.573078,244.397458 487.841833,245.703455 C484.110587,247.009452 479.925605,247.66244 475.28676,247.66244 Z M561.407502,247.762901 C555.961901,247.762901 550.986982,246.808533 546.482596,244.899768 C541.97821,242.991004 538.112563,240.395793 534.88554,237.114057 C531.658518,233.832322 529.137444,229.998106 527.322243,225.611297 C525.507043,221.224487 524.599456,216.553107 524.599456,211.597016 C524.599456,206.440004 525.507043,201.768624 527.322243,197.381815 C529.137444,192.995005 531.692132,189.144046 534.986384,185.828824 C538.280637,182.513601 542.179898,179.884903 546.684284,177.942652 C551.18867,176.0004 556.163589,175.029289 561.60919,175.029289 C567.054791,175.029289 572.02971,175.983657 576.534096,177.892421 C581.038482,179.801186 584.904129,182.396397 588.131152,185.678132 C591.358175,188.959868 593.879248,192.794083 595.694449,197.180893 C597.509649,201.567703 598.417236,206.239083 598.417236,211.195173 C598.417236,216.352185 597.509649,221.023565 595.694449,225.410375 C593.879248,229.797185 591.32456,233.648143 588.030308,236.963366 C584.736055,240.278589 580.836794,242.907286 576.332408,244.849538 C571.828022,246.79179 566.853103,247.762901 561.407502,247.762901 Z M561.60919,236.410832 C565.105131,236.410832 568.315299,235.757843 571.239788,234.451846 C574.164278,233.145849 576.668544,231.37106 578.752663,229.127424 C580.836782,226.883789 582.467077,224.255091 583.643595,221.241252 C584.820114,218.227414 585.408365,215.0127 585.408365,211.597016 L585.408365,211.396095 C585.408365,207.980411 584.820114,204.748954 583.643595,201.701629 C582.467077,198.654303 580.819975,196.008862 578.702241,193.765226 C576.584508,191.521591 574.046627,189.730058 571.088522,188.390574 C568.130418,187.05109 564.903444,186.381358 561.407502,186.381358 C557.911561,186.381358 554.701393,187.034347 551.776904,188.340343 C548.852414,189.64634 546.348148,191.42113 544.264029,193.664765 C542.17991,195.908401 540.549615,198.537099 539.373097,201.550937 C538.196578,204.564776 537.608327,207.779489 537.608327,211.195173 L537.608327,211.396095 C537.608327,214.811779 538.196578,218.043235 539.373097,221.090561 C540.549615,224.137887 542.196717,226.783328 544.314451,229.026964 C546.432184,231.270599 548.970065,233.062132 551.92817,234.401616 C554.886274,235.7411 558.113249,236.410832 561.60919,236.410832 Z M618.485184,176.234818 L629.981395,176.234818 L667.797881,224.857841 L667.797881,176.234818 L680,176.234818 L680,246.557371 L669.613072,246.557371 L630.687303,196.527898 L630.687303,246.557371 L618.485184,246.557371 L618.485184,176.234818 Z M186.611811,179.605228 L214.06083,195.458249 L225.802838,188.606771 L186.611811,165.972222 L147.420784,188.606771 L147.420784,233.875868 L186.611811,256.510417 L225.802838,233.875868 L225.674624,211.241319 L186.759218,211.388776 L186.80385,223.198021 L213.947416,223.09517 L213.96997,227.076866 L186.611811,242.87741 L159.214949,227.054513 L159.214949,195.428126 L186.611811,179.605228 Z" id="a_gluon_purple" fill="url(#linearGradient-1)"></path>
    </g>
</svg>